<?xml version="1.0" encoding="UTF-8" standalone="no"?>
<!-- Created with Inkscape (http://www.inkscape.org/) -->

<svg
   width="96"
   height="96"
   viewBox="0 0 25.399999 25.4"
   version="1.1"
   id="svg1"
   inkscape:version="1.3.2 (091e20e, 2023-11-25)"
   sodipodi:docname="favicon.svg"
   xmlns:inkscape="http://www.inkscape.org/namespaces/inkscape"
   xmlns:sodipodi="http://sodipodi.sourceforge.net/DTD/sodipodi-0.dtd"
   xmlns="http://www.w3.org/2000/svg"
   xmlns:svg="http://www.w3.org/2000/svg">
  <sodipodi:namedview
     id="namedview1"
     pagecolor="#505050"
     bordercolor="#eeeeee"
     borderopacity="1"
     inkscape:showpageshadow="0"
     inkscape:pageopacity="0"
     inkscape:pagecheckerboard="true"
     inkscape:deskcolor="#505050"
     inkscape:document-units="px"
     inkscape:zoom="4.697928"
     inkscape:cx="62.048631"
     inkscape:cy="11.387999"
     inkscape:window-width="1910"
     inkscape:window-height="1009"
     inkscape:window-x="0"
     inkscape:window-y="35"
     inkscape:window-maximized="1"
     inkscape:current-layer="layer2" />
  <defs
     id="defs1">
    <inkscape:path-effect
       effect="fillet_chamfer"
       id="path-effect13"
       is_visible="true"
       lpeversion="1"
       nodesatellites_param="F,0,0,1,0,1.4084878,0,1 @ F,0,0,1,0,1.3240139,0,1 @ F,0,0,1,0,1.4302021,0,1 @ F,0,0,1,0,1.486079,0,1"
       radius="0"
       unit="px"
       method="auto"
       mode="F"
       chamfer_steps="1"
       flexible="false"
       use_knot_distance="true"
       apply_no_radius="true"
       apply_with_radius="true"
       only_selected="false"
       hide_knots="false" />
  </defs>
  <g
     inkscape:groupmode="layer"
     id="layer2"
     inkscape:label="Layer 2"
     style="mix-blend-mode:normal">
    <path
       d="M 19.489474,9.017647 A 6.5206407,7.5506401 0 0 1 13.032569,15.728728 6.5206407,7.5506401 0 0 1 6.5748174,9.017647 h -0.100831 a 2.3092609,2.3092609 0 0 0 -2.3087613,2.308762 v 10.710955 a 2.4276489,2.4276489 0 0 0 2.4358483,2.428224 l 12.5825346,-0.04576 a 2.3886075,2.3886075 0 0 0 2.37993,-2.352818 L 21.724523,11.188298 A 2.1387555,2.1387555 0 0 0 19.58606,9.0176388 Z"
       style="fill:#d4aa00;stroke-width:0.433792"
       id="path15" />
    <path
       d="M 19.907627,9.0001649 H 6.3094157 a 6.8657695,7.8796164 0 0 0 6.7995513,7.0034781 6.8657695,7.8796164 0 0 0 6.79866,-7.0034781 z"
       style="fill:#d4aa00;stroke-width:0.673679"
       id="path16" />
    <path
       id="path14"
       style="fill:#666666;stroke-width:0.642677"
       d="m 6.5121204,8.1780213 c 0.0074,0.2810092 0.02831,0.56132 0.06269,0.8396257 L 7.8804609,8.9865363 C 7.6740803,1.9939847 11.617844,1.4249729 13.281021,1.3686242 c 3.359418,0.090806 5.347359,4.2708107 5.046914,7.6489886 h 1.161582 c 0.03466,-0.2782876 0.05588,-0.5585984 0.06355,-0.8396256 C 19.464744,2.5070205 15.767726,0.03623566 13.017731,0.12601738 9.603593,0.23748203 6.3650889,3.0945384 6.5121204,8.1780213 Z M 18.327892,9.017647 8.0362554,9.061242 7.8202174,9.069442 18.327044,9.030437 Z"
       sodipodi:nodetypes="cccccccscccccc" />
  </g>
  <g
     inkscape:label="Layer 1"
     inkscape:groupmode="layer"
     id="layer1"
     style="mix-blend-mode:normal">
    <g
       inkscape:groupmode="layer"
       id="layer3"
       inkscape:label="Layer 3"
       transform="matrix(0.88933545,0,0,0.88933545,18.719475,4.5116557)">
      <path
         id="path1"
         style="display:inline;mix-blend-mode:normal;fill:#666666;stroke-width:0.207526"
         d="m -11.54131,9.6373932 c -2.518162,6.7e-5 -4.559462,2.0355848 -4.559324,4.5464078 1.24e-4,2.510641 2.041348,4.54587 4.559324,4.545936 2.518144,1.69e-4 4.5596253,-2.035131 4.5597507,-4.545936 1.38e-4,-2.51099 -2.0414219,-4.5465758 -4.5597507,-4.5464078 z m 0.02144,1.1238928 c 1.7392597,-9.8e-5 3.3612327,1.535157 3.3614425,3.245719 5.36e-5,1.710745 -1.727358,3.384912 -3.4668065,3.384814 -1.739279,-1.31e-4 -3.323462,-1.520739 -3.323408,-3.23132 2.12e-4,-1.710396 1.68968,-3.399079 3.428772,-3.399213 z"
         sodipodi:nodetypes="cccccccccc" />
      <ellipse
         style="mix-blend-mode:normal;fill:#666666;stroke-width:0.301485"
         id="path7"
         cx="-11.499503"
         cy="12.708064"
         rx="1.0399027"
         ry="0.97383875" />
      <path
         id="path8"
         style="mix-blend-mode:normal;fill:#666666;stroke-width:0.309727"
         d="m -11.500017,14.166608 a 2.8506679,2.5566382 0 0 0 -2.851139,2.556458 2.8506679,2.5566382 0 0 0 0.390873,1.280009 c 0.09654,8.3e-5 0.207126,0.01171 0.237172,0.01424 0.17915,0.01503 0.270839,0.02638 0.451439,0.04682 0.118957,0.01469 0.23779,0.03072 0.356265,0.04885 -0.07012,-0.05148 -0.224092,-0.171546 -0.19849,-0.239206 0.102076,-0.269772 0.300718,-0.232 0.52778,-0.235644 0.228264,-0.0037 0.700154,0.02129 0.91713,0.03104 0.508065,0.02582 1.016051,0.05725 1.523287,0.09619 0.201272,0.01546 0.5685887,0.04496 0.7781849,0.07125 0.092041,0.01155 0.1831714,0.02851 0.2748329,0.04275 0.031418,0.0075 0.072883,0.01554 0.1140053,0.02494 a 2.8506679,2.5566382 0 0 0 0.3292913,-1.181273 2.8506679,2.5566382 0 0 0 -2.8506304,-2.556458 z m -1.384854,3.605404 c -0.0033,7e-6 0.0032,0.03022 0.0037,0.04173 0.0058,0.0047 0.0115,0.0096 0.01731,0.01424 -0.0044,-0.01939 -0.0089,-0.03926 -0.01884,-0.05395 -9.19e-4,-0.0014 -0.0016,-0.0021 -0.0021,-0.0021 z m 0.311479,0.117568 c -0.06318,-1.5e-4 -0.129514,0.02103 -0.191875,0.01884 0.01049,0.0086 0.02105,0.01691 0.03155,0.02545 0.184491,0.130472 0.256759,0.187435 0.4606,0.303844 0.108703,0.06207 0.21995,0.119103 0.333362,0.171516 0.08284,-0.0057 0.165548,-0.0121 0.248369,-0.01833 0.0033,-0.06338 0.06955,-0.123442 0.194926,-0.115022 0.190343,0.01278 0.380942,0.02492 0.571551,0.03512 0.01301,-0.0023 0.02688,-0.0039 0.04173,-0.0046 0.202141,-0.0089 0.403816,-0.02151 0.605141,-0.04021 0.140381,-0.07978 0.2839337,-0.154609 0.4407517,-0.196963 0.026514,-0.0071 0.053256,-0.01264 0.079907,-0.01883 -0.1506883,-0.01348 -0.3008617,-0.02597 -0.4066507,-0.0341 -0.504983,-0.03877 -1.010354,-0.06994 -1.516162,-0.09568 -0.298374,-0.01346 -0.594521,-0.0302 -0.893208,-0.03104 z" />
      <path
         id="rect2"
         style="mix-blend-mode:normal;fill:#666666;stroke-width:0.228502"
         d="m -8.2353313,12.447785 h 10.618932 l 0.734418,0.298132 0.139806,0.506314 -1.243706,1.583796 -0.834763,0.01635 -0.59070798,-0.794626 -0.67474,-0.0093 -0.86766897,0.676774 -0.51907105,0.01293 -0.4899,-0.523043 -0.52427,-0.01767 -0.609797,0.627904 -0.483488,0.03588 -1.076809,-0.796948 -0.761013,-0.0015 -0.790637,1.076468 -1.437411,-0.08711 z"
         sodipodi:nodetypes="ccccccccccccccccccc" />
    </g>
  </g>
</svg>
